<svg width="150" height="150" viewBox="0 0 150 150" fill="none" xmlns="http://www.w3.org/2000/svg">
<rect x="1" y="1" width="148" height="148" rx="9" fill="white" stroke="black" stroke-width="2"/>
<path d="M73.0141 20.1054L75 20.0014L76.9859 20.1054L78.95 20.4165L80.8709 20.9312L82.7274 21.6439L84.4993 22.5467L86.1671 23.6298L87.7126 24.8813L89.1187 26.2874L90.3702 27.8329L91.4533 29.5007L92.3561 31.2725L93.0688 33.1291L93.5835 35.05L93.8946 37.0141L93.9986 39L93.8946 40.9859L93.5835 42.95L93.0688 44.8709L92.3561 46.7275L91.4533 48.4993L90.3702 50.1671L89.1187 51.7125L87.7125 53.1187L86.1671 54.3702L84.4993 55.4533L82.7275 56.3561L80.8709 57.0688L78.95 57.5835L76.9859 57.8946L75 57.9986L73.0141 57.8946L71.05 57.5835L69.1291 57.0688L67.2725 56.3561L65.5007 55.4533L63.8329 54.3702L62.2874 53.1187L60.8813 51.7126L59.6298 50.1671L58.5467 48.4993L57.6439 46.7274L56.9312 44.8709L56.4165 42.95L56.1054 40.9859L56.0014 39L56.1054 37.0141L56.4165 35.05L56.9312 33.1291L57.6439 31.2726L58.5467 29.5007L59.6298 27.8329L60.8813 26.2874L62.2874 24.8813L63.8329 23.6298L65.5007 22.5467L67.2726 21.6439L69.1291 20.9312L71.05 20.4165L73.0141 20.1054Z" fill="white" stroke="black" stroke-width="2"/>
<path d="M69.2892 74.109L75 74.0002L80.7108 74.109L86.3579 74.4343L91.8783 74.9721L97.2102 75.7164L102.294 76.6583L107.072 77.7866L111.49 79.0876L115.497 80.5447L119.046 82.1384L122.095 83.8458L124.608 85.6389L126.556 87.4845L127.926 89.3443L128.728 91.1853L128.99 93L128.728 94.8147L127.926 96.6557L126.556 98.5155L124.608 100.361L122.095 102.154L119.046 103.862L115.497 105.455L111.49 106.912L107.072 108.213L102.294 109.342L97.2102 110.284L91.8782 111.028L86.3579 111.566L80.7108 111.891L75 112L69.2892 111.891L63.6421 111.566L58.1218 111.028L52.7898 110.284L47.7062 109.342L42.9281 108.213L38.5102 106.912L34.5032 105.455L30.954 103.862L27.905 102.154L25.3924 100.361L23.4442 98.5155L22.0737 96.6557L21.2719 94.8147L21.0103 93L21.2719 91.1853L22.0737 89.3443L23.4442 87.4845L25.3924 85.6389L27.9049 83.8458L30.9541 82.1384L34.5032 80.5447L38.5102 79.0876L42.9282 77.7866L47.7061 76.6583L52.7898 75.7164L58.1217 74.9721L63.6421 74.4343L69.2892 74.109Z" fill="white" stroke="black" stroke-width="2"/>
<path d="M42.1491 126.273H43.9943V131.94C43.9943 132.577 43.8423 133.134 43.5384 133.611C43.2372 134.088 42.8153 134.46 42.2727 134.727C41.7301 134.991 41.098 135.124 40.3764 135.124C39.652 135.124 39.0185 134.991 38.4759 134.727C37.9332 134.46 37.5114 134.088 37.2102 133.611C36.9091 133.134 36.7585 132.577 36.7585 131.94V126.273H38.6037V131.783C38.6037 132.115 38.6761 132.411 38.821 132.669C38.9688 132.928 39.1761 133.131 39.4432 133.278C39.7102 133.426 40.0213 133.5 40.3764 133.5C40.7344 133.5 41.0455 133.426 41.3097 133.278C41.5767 133.131 41.7827 132.928 41.9276 132.669C42.0753 132.411 42.1491 132.115 42.1491 131.783V126.273ZM45.4783 137.455V128.455H47.2681V129.554H47.3491C47.4286 129.378 47.5437 129.199 47.6942 129.017C47.8477 128.832 48.0465 128.679 48.2908 128.557C48.538 128.432 48.8448 128.369 49.2113 128.369C49.6886 128.369 50.1289 128.494 50.5323 128.744C50.9357 128.991 51.2582 129.365 51.4996 129.865C51.7411 130.362 51.8619 130.986 51.8619 131.736C51.8619 132.466 51.744 133.082 51.5082 133.585C51.2752 134.085 50.957 134.464 50.5536 134.723C50.1531 134.979 49.7042 135.107 49.207 135.107C48.8548 135.107 48.555 135.048 48.3079 134.932C48.0636 134.815 47.8633 134.669 47.707 134.493C47.5508 134.314 47.4315 134.134 47.3491 133.952H47.2937V137.455H45.4783ZM47.2553 131.727C47.2553 132.116 47.3093 132.456 47.4173 132.746C47.5252 133.036 47.6815 133.261 47.886 133.423C48.0906 133.582 48.3391 133.662 48.6317 133.662C48.9272 133.662 49.1772 133.581 49.3817 133.419C49.5863 133.254 49.7411 133.027 49.8462 132.737C49.9542 132.445 50.0082 132.108 50.0082 131.727C50.0082 131.349 49.9556 131.017 49.8505 130.73C49.7454 130.443 49.5906 130.219 49.386 130.057C49.1815 129.895 48.93 129.814 48.6317 129.814C48.3363 129.814 48.0863 129.892 47.8817 130.048C47.68 130.205 47.5252 130.426 47.4173 130.713C47.3093 131 47.2553 131.338 47.2553 131.727ZM54.8874 126.273V135H53.0721V126.273H54.8874ZM59.299 135.128C58.6371 135.128 58.0646 134.987 57.5817 134.706C57.1016 134.422 56.7308 134.027 56.4695 133.521C56.2081 133.013 56.0774 132.423 56.0774 131.753C56.0774 131.077 56.2081 130.486 56.4695 129.98C56.7308 129.472 57.1016 129.077 57.5817 128.795C58.0646 128.511 58.6371 128.369 59.299 128.369C59.9609 128.369 60.532 128.511 61.0121 128.795C61.495 129.077 61.8672 129.472 62.1286 129.98C62.3899 130.486 62.5206 131.077 62.5206 131.753C62.5206 132.423 62.3899 133.013 62.1286 133.521C61.8672 134.027 61.495 134.422 61.0121 134.706C60.532 134.987 59.9609 135.128 59.299 135.128ZM59.3075 133.722C59.6087 133.722 59.8601 133.636 60.0618 133.466C60.2635 133.293 60.4155 133.057 60.5178 132.759C60.6229 132.46 60.6754 132.121 60.6754 131.74C60.6754 131.359 60.6229 131.02 60.5178 130.722C60.4155 130.423 60.2635 130.187 60.0618 130.014C59.8601 129.841 59.6087 129.754 59.3075 129.754C59.0036 129.754 58.7479 129.841 58.5405 130.014C58.3359 130.187 58.1811 130.423 58.076 130.722C57.9737 131.02 57.9226 131.359 57.9226 131.74C57.9226 132.121 57.9737 132.46 58.076 132.759C58.1811 133.057 58.3359 133.293 58.5405 133.466C58.7479 133.636 59.0036 133.722 59.3075 133.722ZM65.5675 135.124C65.1499 135.124 64.7777 135.051 64.451 134.906C64.1243 134.759 63.8658 134.541 63.6754 134.254C63.4879 133.964 63.3942 133.604 63.3942 133.172C63.3942 132.808 63.4609 132.503 63.5945 132.256C63.728 132.009 63.9098 131.81 64.1399 131.659C64.37 131.509 64.6314 131.395 64.924 131.318C65.2195 131.241 65.5291 131.188 65.853 131.156C66.2337 131.116 66.5405 131.08 66.7734 131.045C67.0064 131.009 67.1754 130.955 67.2805 130.884C67.3857 130.812 67.4382 130.707 67.4382 130.568V130.543C67.4382 130.273 67.353 130.064 67.1825 129.916C67.0149 129.768 66.7763 129.695 66.4666 129.695C66.1399 129.695 65.88 129.767 65.6868 129.912C65.4936 130.054 65.3658 130.233 65.3033 130.449L63.6243 130.312C63.7095 129.915 63.8771 129.571 64.1271 129.281C64.3771 128.989 64.6996 128.764 65.0945 128.608C65.4922 128.449 65.9524 128.369 66.4751 128.369C66.8388 128.369 67.1868 128.412 67.5192 128.497C67.8544 128.582 68.1513 128.714 68.4098 128.893C68.6712 129.072 68.8771 129.303 69.0277 129.584C69.1783 129.862 69.2536 130.196 69.2536 130.585V135H67.532V134.092H67.4808C67.3757 134.297 67.2351 134.477 67.0589 134.634C66.8828 134.787 66.6712 134.908 66.424 134.996C66.1768 135.081 65.8913 135.124 65.5675 135.124ZM66.0874 133.871C66.3544 133.871 66.5902 133.818 66.7947 133.713C66.9993 133.605 67.1598 133.46 67.2763 133.278C67.3928 133.097 67.451 132.891 67.451 132.661V131.966C67.3942 132.003 67.3161 132.037 67.2166 132.068C67.12 132.097 67.0107 132.124 66.8885 132.149C66.7663 132.172 66.6442 132.193 66.522 132.213C66.3999 132.23 66.2891 132.246 66.1896 132.26C65.9766 132.291 65.7905 132.341 65.6314 132.409C65.4723 132.477 65.3487 132.57 65.2607 132.686C65.1726 132.8 65.1286 132.942 65.1286 133.112C65.1286 133.359 65.218 133.548 65.397 133.679C65.5788 133.807 65.8089 133.871 66.0874 133.871ZM73.0739 135.107C72.5767 135.107 72.1264 134.979 71.723 134.723C71.3224 134.464 71.0043 134.085 70.7685 133.585C70.5355 133.082 70.419 132.466 70.419 131.736C70.419 130.986 70.5398 130.362 70.7812 129.865C71.0227 129.365 71.3438 128.991 71.7443 128.744C72.1477 128.494 72.5895 128.369 73.0696 128.369C73.4361 128.369 73.7415 128.432 73.9858 128.557C74.233 128.679 74.4318 128.832 74.5824 129.017C74.7358 129.199 74.8523 129.378 74.9318 129.554H74.9872V126.273H76.7983V135H75.0085V133.952H74.9318C74.8466 134.134 74.7259 134.314 74.5696 134.493C74.4162 134.669 74.2159 134.815 73.9688 134.932C73.7244 135.048 73.4261 135.107 73.0739 135.107ZM73.6491 133.662C73.9418 133.662 74.1889 133.582 74.3906 133.423C74.5952 133.261 74.7514 133.036 74.8594 132.746C74.9702 132.456 75.0256 132.116 75.0256 131.727C75.0256 131.338 74.9716 131 74.8636 130.713C74.7557 130.426 74.5994 130.205 74.3949 130.048C74.1903 129.892 73.9418 129.814 73.6491 129.814C73.3509 129.814 73.0994 129.895 72.8949 130.057C72.6903 130.219 72.5355 130.443 72.4304 130.73C72.3253 131.017 72.2727 131.349 72.2727 131.727C72.2727 132.108 72.3253 132.445 72.4304 132.737C72.5384 133.027 72.6932 133.254 72.8949 133.419C73.0994 133.581 73.3509 133.662 73.6491 133.662ZM81.1023 135V126.273H84.5455C85.2074 126.273 85.7713 126.399 86.2372 126.652C86.7031 126.902 87.0582 127.25 87.3026 127.696C87.5497 128.139 87.6733 128.651 87.6733 129.23C87.6733 129.81 87.5483 130.321 87.2983 130.764C87.0483 131.207 86.6861 131.553 86.2116 131.8C85.7401 132.047 85.169 132.17 84.4986 132.17H82.304V130.692H84.2003C84.5554 130.692 84.848 130.631 85.0781 130.509C85.3111 130.384 85.4844 130.212 85.598 129.993C85.7145 129.771 85.7727 129.517 85.7727 129.23C85.7727 128.94 85.7145 128.687 85.598 128.472C85.4844 128.253 85.3111 128.084 85.0781 127.964C84.8452 127.842 84.5497 127.781 84.1918 127.781H82.9474V135H81.1023ZM90.6531 131.216V135H88.8377V126.273H90.6019V129.609H90.6786C90.8263 129.223 91.065 128.92 91.3945 128.702C91.7241 128.48 92.1374 128.369 92.6346 128.369C93.0891 128.369 93.4854 128.469 93.8235 128.668C94.1644 128.864 94.4286 129.146 94.6161 129.516C94.8065 129.882 94.9002 130.321 94.8974 130.832V135H93.082V131.156C93.0849 130.753 92.9826 130.439 92.7752 130.214C92.5707 129.99 92.2837 129.878 91.9144 129.878C91.6673 129.878 91.4485 129.93 91.2582 130.036C91.0707 130.141 90.9229 130.294 90.815 130.496C90.7099 130.695 90.6559 130.935 90.6531 131.216ZM99.2834 135.128C98.6214 135.128 98.049 134.987 97.5661 134.706C97.0859 134.422 96.7152 134.027 96.4538 133.521C96.1925 133.013 96.0618 132.423 96.0618 131.753C96.0618 131.077 96.1925 130.486 96.4538 129.98C96.7152 129.472 97.0859 129.077 97.5661 128.795C98.049 128.511 98.6214 128.369 99.2834 128.369C99.9453 128.369 100.516 128.511 100.996 128.795C101.479 129.077 101.852 129.472 102.113 129.98C102.374 130.486 102.505 131.077 102.505 131.753C102.505 132.423 102.374 133.013 102.113 133.521C101.852 134.027 101.479 134.422 100.996 134.706C100.516 134.987 99.9453 135.128 99.2834 135.128ZM99.2919 133.722C99.593 133.722 99.8445 133.636 100.046 133.466C100.248 133.293 100.4 133.057 100.502 132.759C100.607 132.46 100.66 132.121 100.66 131.74C100.66 131.359 100.607 131.02 100.502 130.722C100.4 130.423 100.248 130.187 100.046 130.014C99.8445 129.841 99.593 129.754 99.2919 129.754C98.9879 129.754 98.7322 129.841 98.5249 130.014C98.3203 130.187 98.1655 130.423 98.0604 130.722C97.9581 131.02 97.907 131.359 97.907 131.74C97.907 132.121 97.9581 132.46 98.0604 132.759C98.1655 133.057 98.3203 133.293 98.5249 133.466C98.7322 133.636 98.9879 133.722 99.2919 133.722ZM107.167 128.455V129.818H103.225V128.455H107.167ZM104.12 126.886H105.935V132.989C105.935 133.156 105.961 133.287 106.012 133.381C106.063 133.472 106.134 133.536 106.225 133.572C106.319 133.609 106.427 133.628 106.549 133.628C106.634 133.628 106.719 133.621 106.805 133.607C106.89 133.589 106.955 133.577 107.001 133.568L107.286 134.919C107.195 134.947 107.067 134.98 106.903 135.017C106.738 135.057 106.538 135.081 106.302 135.089C105.864 135.107 105.481 135.048 105.151 134.915C104.825 134.781 104.57 134.574 104.388 134.293C104.207 134.011 104.117 133.656 104.12 133.227V126.886ZM111.237 135.128C110.575 135.128 110.002 134.987 109.519 134.706C109.039 134.422 108.668 134.027 108.407 133.521C108.146 133.013 108.015 132.423 108.015 131.753C108.015 131.077 108.146 130.486 108.407 129.98C108.668 129.472 109.039 129.077 109.519 128.795C110.002 128.511 110.575 128.369 111.237 128.369C111.898 128.369 112.469 128.511 112.95 128.795C113.433 129.077 113.805 129.472 114.066 129.98C114.327 130.486 114.458 131.077 114.458 131.753C114.458 132.423 114.327 133.013 114.066 133.521C113.805 134.027 113.433 134.422 112.95 134.706C112.469 134.987 111.898 135.128 111.237 135.128ZM111.245 133.722C111.546 133.722 111.798 133.636 111.999 133.466C112.201 133.293 112.353 133.057 112.455 132.759C112.56 132.46 112.613 132.121 112.613 131.74C112.613 131.359 112.56 131.02 112.455 130.722C112.353 130.423 112.201 130.187 111.999 130.014C111.798 129.841 111.546 129.754 111.245 129.754C110.941 129.754 110.685 129.841 110.478 130.014C110.273 130.187 110.119 130.423 110.013 130.722C109.911 131.02 109.86 131.359 109.86 131.74C109.86 132.121 109.911 132.46 110.013 132.759C110.119 133.057 110.273 133.293 110.478 133.466C110.685 133.636 110.941 133.722 111.245 133.722Z" fill="black"/>
</svg>
