<svg width="45" height="45" viewBox="0 0 45 45" fill="none" xmlns="http://www.w3.org/2000/svg">
<path d="M0.5 0.5H44.5V44.5H0.5V0.5Z" stroke="white"/>
<path d="M29.5967 25.2021C25.7517 25.2021 22.6318 28.0657 22.6318 31.6014C22.6318 35.1342 25.7506 37.9997 29.5967 37.9997C33.4427 37.9997 36.5625 35.1361 36.5625 31.6014C36.5625 28.0657 33.4438 25.2021 29.5967 25.2021ZM28.1034 35.5355L24.3843 32.1194L25.8442 30.777L28.1034 32.8528L33.0177 28.3375L34.4765 29.6789L28.1034 35.5355Z" fill="white" stroke="white"/>
<path d="M10.2847 34.9625V8.69916H24.6608V15.5037H32.0677V24.6173C32.7261 24.813 33.3458 25.0898 33.9171 25.4268V14.7999L25.4267 7H8.4375V36.6616H23.8141C23.2913 36.1575 22.8459 35.5872 22.4941 34.9625H10.2847Z" fill="white" stroke="white"/>
<path d="M15.0845 20.9493C16.526 20.9493 17.6945 19.8757 17.6945 18.5513C17.6945 17.2269 16.526 16.1533 15.0845 16.1533C13.6431 16.1533 12.4746 17.2269 12.4746 18.5513C12.4746 19.8757 13.6431 20.9493 15.0845 20.9493Z" fill="white" stroke="white"/>
<path d="M28.8997 17.1279H20.0371V19.9747H28.8997V17.1279Z" fill="white" stroke="white"/>
<path d="M15.0845 27.2833C16.526 27.2833 17.6945 26.2097 17.6945 24.8853C17.6945 23.5609 16.526 22.4873 15.0845 22.4873C13.6431 22.4873 12.4746 23.5609 12.4746 24.8853C12.4746 26.2097 13.6431 27.2833 15.0845 27.2833Z" fill="white" stroke="white"/>
<path d="M28.8997 24.2863V23.4619H20.0371V26.3087H24.065C25.3441 25.1789 27.0299 24.4355 28.8997 24.2863Z" fill="white" stroke="white"/>
<path d="M15.0845 33.3087C16.526 33.3087 17.6945 32.2351 17.6945 30.9107C17.6945 29.5863 16.526 28.5127 15.0845 28.5127C13.6431 28.5127 12.4746 29.5863 12.4746 30.9107C12.4746 32.2351 13.6431 33.3087 15.0845 33.3087Z" fill="white" stroke="white"/>
<path d="M20.0371 29.4883V32.335H21.6401C21.6143 32.0929 21.5992 31.8487 21.5992 31.6016C21.5992 30.8662 21.7208 30.1594 21.9391 29.4883H20.0371Z" fill="white" stroke="white"/>
</svg>
