<svg width="45" height="46" viewBox="0 0 45 46" fill="none" xmlns="http://www.w3.org/2000/svg">
<path d="M23.2714 21.9988C27.9034 21.9988 31.6529 18.3673 31.6529 13.8909C31.6529 9.41315 27.9034 5.78418 23.2714 5.78418C18.6415 5.78418 14.8882 9.41343 14.8882 13.8909C14.8882 18.3676 18.6415 21.9988 23.2714 21.9988Z" fill="white"/>
<path d="M25.4296 22.3255L23.3421 24.3591L21.3176 22.3043C21.3107 22.3059 21.3032 22.3059 21.2985 22.3076C20.9607 22.386 19.5268 22.8272 17.6665 24.1175C17.65 24.1287 17.2722 24.382 17.0953 24.4893C16.7442 24.7037 16.2199 25.0142 15.5856 25.3073C14.9551 25.6051 14.2082 25.8747 13.5284 26.0158C13.1929 26.0802 12.8898 26.0978 12.6463 26.0903C12.3948 26.0858 12.25 26.0332 12.0966 25.9682C12.0141 25.9498 11.953 25.8747 11.8627 25.8333C11.792 25.7426 11.6898 25.6992 11.6131 25.5704C11.572 25.5136 11.5248 25.466 11.4808 25.4044L11.3618 25.1914C11.2698 25.0648 11.2116 24.8762 11.1372 24.7138C11.0558 24.5576 11.0139 24.3521 10.9534 24.1721C10.8903 23.9938 10.848 23.7981 10.8112 23.6018C10.718 23.2245 10.6743 22.8306 10.6288 22.4689C10.573 22.1122 10.5764 21.7542 10.5489 21.4521C10.5481 21.4434 10.5486 21.4359 10.5481 21.4272C10.7255 21.1814 10.9667 20.9597 11.2599 20.7539C11.5529 20.5504 11.7833 20.2117 11.9362 19.8878C12.5308 18.6103 12.7893 17.8788 13.2161 16.539C13.3961 15.9746 12.3198 15.3501 11.6175 16.9475C11.3204 17.5261 11.4501 17.5855 11.1482 18.1619L11.0402 18.3581C11.0402 18.3581 10.978 17.8016 10.9699 17.6333C10.8764 15.7045 10.791 14.6698 10.6951 12.7409C10.6691 12.206 10.4386 11.9677 10.0116 11.9963C9.60518 12.0246 9.42656 12.2667 9.44827 12.7866C9.49198 13.8395 9.54409 13.9968 9.5881 15.0488C9.60865 15.4455 9.34173 15.3702 9.34347 15.0472C9.27283 13.6121 9.20538 13.2952 9.14575 11.86C9.12895 11.4703 8.96134 11.2147 8.54822 11.1718C8.14901 11.131 7.8763 11.4515 7.89657 11.9395C7.95591 13.3266 8.02684 13.5954 8.0859 14.9828C8.10674 15.3932 7.84562 15.3285 7.84475 15.02C7.79177 13.9204 7.75819 13.7135 7.67597 12.6158C7.66005 12.3947 7.52109 12.1041 7.34131 11.9882C6.90273 11.7057 6.42332 12.0657 6.44358 12.6514C6.48585 13.8795 6.55446 14.2126 6.60686 15.4397C6.63842 15.7546 6.38337 15.8391 6.36947 15.4724C6.3301 14.6911 6.2997 14.8036 6.25541 14.0231C6.23515 13.6673 6.02555 13.4641 5.65558 13.4503C5.28184 13.4372 5.076 13.6474 5.01521 13.9873C4.98915 14.1264 5.00305 14.2734 5.00971 14.4159C5.09482 16.2658 5.14606 17.2235 5.28734 19.0692C5.33771 19.7156 5.4179 20.1669 5.52733 20.6887C5.63676 21.2105 5.93783 21.4566 6.00992 21.715C5.99313 22.014 5.97286 22.3281 5.98502 22.6884C5.99168 23.1671 5.99458 23.6844 6.06319 24.2603C6.08693 24.5436 6.11819 24.8375 6.18362 25.1511C6.24586 25.4629 6.28349 25.7723 6.39205 26.1107C6.4928 26.4458 6.57038 26.7792 6.73366 27.137C6.80864 27.3134 6.8842 27.4909 6.96034 27.6689C7.05066 27.8489 7.16009 28.0309 7.2646 28.2117C7.45538 28.5746 7.76108 28.9329 8.04392 29.2834C8.38032 29.6174 8.71903 29.9564 9.13938 30.2243C9.94649 30.7819 10.9096 31.156 11.792 31.2976C12.6788 31.4513 13.5093 31.4524 14.2522 31.3838C14.4516 31.3623 14.6957 31.3368 14.8868 31.3085L14.8923 40.7842H32.2279V37.1558C32.6103 38.2023 32.9707 39.4102 33.3121 40.7842H40C38.0224 31.9135 32.8468 24.6903 25.4296 22.3255ZM23.3612 40.4032H23.3241L21.3014 37.7277L23.3241 24.6603H23.3612L25.3853 37.7277L23.3612 40.4032Z" fill="white"/>
<path d="M23.2714 21.9988C27.9034 21.9988 31.6529 18.3673 31.6529 13.8909C31.6529 9.41315 27.9034 5.78418 23.2714 5.78418C18.6415 5.78418 14.8882 9.41343 14.8882 13.8909C14.8882 18.3676 18.6415 21.9988 23.2714 21.9988Z" stroke="white"/>
<path d="M25.4296 22.3255L23.3421 24.3591L21.3176 22.3043C21.3107 22.3059 21.3032 22.3059 21.2985 22.3076C20.9607 22.386 19.5268 22.8272 17.6665 24.1175C17.65 24.1287 17.2722 24.382 17.0953 24.4893C16.7442 24.7037 16.2199 25.0142 15.5856 25.3073C14.9551 25.6051 14.2082 25.8747 13.5284 26.0158C13.1929 26.0802 12.8898 26.0978 12.6463 26.0903C12.3948 26.0858 12.25 26.0332 12.0966 25.9682C12.0141 25.9498 11.953 25.8747 11.8627 25.8333C11.792 25.7426 11.6898 25.6992 11.6131 25.5704C11.572 25.5136 11.5248 25.466 11.4808 25.4044L11.3618 25.1914C11.2698 25.0648 11.2116 24.8762 11.1372 24.7138C11.0558 24.5576 11.0139 24.3521 10.9534 24.1721C10.8903 23.9938 10.848 23.7981 10.8112 23.6018C10.718 23.2245 10.6743 22.8306 10.6288 22.4689C10.573 22.1122 10.5764 21.7542 10.5489 21.4521C10.5481 21.4434 10.5486 21.4359 10.5481 21.4272C10.7255 21.1814 10.9667 20.9597 11.2599 20.7539C11.5529 20.5504 11.7833 20.2117 11.9362 19.8878C12.5308 18.6103 12.7893 17.8788 13.2161 16.539C13.3961 15.9746 12.3198 15.3501 11.6175 16.9475C11.3204 17.5261 11.4501 17.5855 11.1482 18.1619L11.0402 18.3581C11.0402 18.3581 10.978 17.8016 10.9699 17.6333C10.8764 15.7045 10.791 14.6698 10.6951 12.7409C10.6691 12.206 10.4386 11.9677 10.0116 11.9963C9.60518 12.0246 9.42656 12.2667 9.44827 12.7866C9.49198 13.8395 9.54409 13.9968 9.5881 15.0488C9.60865 15.4455 9.34173 15.3702 9.34347 15.0472C9.27283 13.6121 9.20538 13.2952 9.14575 11.86C9.12895 11.4703 8.96134 11.2147 8.54822 11.1718C8.14901 11.131 7.8763 11.4515 7.89657 11.9395C7.95591 13.3266 8.02684 13.5954 8.0859 14.9828C8.10674 15.3932 7.84562 15.3285 7.84475 15.02C7.79177 13.9204 7.75819 13.7135 7.67597 12.6158C7.66005 12.3947 7.52109 12.1041 7.34131 11.9882C6.90273 11.7057 6.42332 12.0657 6.44358 12.6514C6.48585 13.8795 6.55446 14.2126 6.60686 15.4397C6.63842 15.7546 6.38337 15.8391 6.36947 15.4724C6.3301 14.6911 6.2997 14.8036 6.25541 14.0231C6.23515 13.6673 6.02555 13.4641 5.65558 13.4503C5.28184 13.4372 5.076 13.6474 5.01521 13.9873C4.98915 14.1264 5.00305 14.2734 5.00971 14.4159C5.09482 16.2658 5.14606 17.2235 5.28734 19.0692C5.33771 19.7156 5.4179 20.1669 5.52733 20.6887C5.63676 21.2105 5.93783 21.4566 6.00992 21.715C5.99313 22.014 5.97286 22.3281 5.98502 22.6884C5.99168 23.1671 5.99458 23.6844 6.06319 24.2603C6.08693 24.5436 6.11819 24.8375 6.18362 25.1511C6.24586 25.4629 6.28349 25.7723 6.39205 26.1107C6.4928 26.4458 6.57038 26.7792 6.73366 27.137C6.80864 27.3134 6.8842 27.4909 6.96034 27.6689C7.05066 27.8489 7.16009 28.0309 7.2646 28.2117C7.45538 28.5746 7.76108 28.9329 8.04392 29.2834C8.38032 29.6174 8.71903 29.9564 9.13938 30.2243C9.94649 30.7819 10.9096 31.156 11.792 31.2976C12.6788 31.4513 13.5093 31.4524 14.2522 31.3838C14.4516 31.3623 14.6957 31.3368 14.8868 31.3085L14.8923 40.7842H32.2279V37.1558C32.6103 38.2023 32.9707 39.4102 33.3121 40.7842H40C38.0224 31.9135 32.8468 24.6903 25.4296 22.3255ZM23.3612 40.4032H23.3241L21.3014 37.7277L23.3241 24.6603H23.3612L25.3853 37.7277L23.3612 40.4032Z" stroke="white"/>
<path d="M0.5 1.28516H44.5V45.2852H0.5V1.28516Z" stroke="white"/>
</svg>
