<svg width="47" height="47" viewBox="0 0 47 47" fill="none" xmlns="http://www.w3.org/2000/svg">
<path d="M16 21.175C15.6417 21.175 15.2792 21.175 14.9125 21.175C13.4284 21.1214 11.9492 21.3733 10.5666 21.9152C9.18394 22.457 7.92742 23.2773 6.875 24.325L6.575 24.675V35.025H11.675V29.15L12.3625 28.375L12.675 28.0125C14.3024 26.3406 16.3285 25.1104 18.5625 24.4375C17.444 23.5864 16.5619 22.4633 16 21.175Z" fill="white"/>
<path d="M40.175 24.2875C39.1226 23.2398 37.8661 22.4195 36.4834 21.8777C35.1008 21.3358 33.6216 21.0839 32.1375 21.1375C31.6823 21.1388 31.2276 21.1638 30.775 21.2125C30.2026 22.4211 29.3446 23.4722 28.275 24.275C30.66 24.9348 32.8205 26.2311 34.525 28.025L34.8375 28.375L35.5125 29.15V35.0375H40.4375V24.6375L40.175 24.2875Z" fill="white"/>
<path d="M14.875 18.7375C15.0125 18.7375 15.125 18.7375 15.2625 18.7375C15.0825 17.1916 15.3537 15.6265 16.0435 14.2314C16.7334 12.8362 17.8123 11.6705 19.15 10.875C18.6651 10.1342 17.9961 9.53201 17.2085 9.12743C16.4209 8.72286 15.5418 8.52976 14.6572 8.56703C13.7725 8.60431 12.9128 8.8707 12.162 9.3401C11.4113 9.8095 10.7953 10.4658 10.3744 11.2448C9.95357 12.0238 9.74222 12.8987 9.76109 13.7839C9.77995 14.6691 10.0284 15.5343 10.4821 16.2946C10.9358 17.055 11.5791 17.6845 12.3492 18.1214C13.1192 18.5584 13.9896 18.7879 14.875 18.7875V18.7375Z" fill="white"/>
<path d="M31.5375 17.8C31.5527 18.0873 31.5527 18.3752 31.5375 18.6625C31.7774 18.7005 32.0197 18.7214 32.2625 18.725H32.5C33.3815 18.678 34.2358 18.4035 34.9798 17.9284C35.7238 17.4532 36.332 16.7934 36.7453 16.0134C37.1586 15.2334 37.3629 14.3596 37.3383 13.4772C37.3137 12.5947 37.061 11.7337 36.6048 10.9779C36.1487 10.2222 35.5046 9.59738 34.7353 9.16441C33.966 8.73144 33.0977 8.50505 32.2149 8.50727C31.3322 8.50949 30.465 8.74025 29.6979 9.17708C28.9308 9.61392 28.2898 10.2419 27.8375 11C28.9689 11.7387 29.8991 12.7466 30.5449 13.9335C31.1907 15.1203 31.5318 16.4489 31.5375 17.8Z" fill="white"/>
<path d="M23.3375 23.4C26.4234 23.4 28.925 20.8984 28.925 17.8125C28.925 14.7266 26.4234 12.225 23.3375 12.225C20.2516 12.225 17.75 14.7266 17.75 17.8125C17.75 20.8984 20.2516 23.4 23.3375 23.4Z" fill="white"/>
<path d="M23.6375 26.375C22.0051 26.3091 20.3762 26.5741 18.8488 27.1541C17.3214 27.7341 15.9272 28.6171 14.75 29.75L14.4375 30.1V38.0125C14.4424 38.2702 14.498 38.5245 14.6011 38.7607C14.7043 38.997 14.853 39.2106 15.0387 39.3893C15.2244 39.5681 15.4436 39.7085 15.6836 39.8026C15.9236 39.8966 16.1798 39.9425 16.4375 39.9375H30.8C31.0577 39.9425 31.3139 39.8966 31.5539 39.8026C31.7939 39.7085 32.0131 39.5681 32.1988 39.3893C32.3845 39.2106 32.5332 38.997 32.6364 38.7607C32.7395 38.5245 32.7951 38.2702 32.8 38.0125V30.125L32.5 29.75C31.3304 28.6137 29.941 27.7282 28.4171 27.1478C26.8931 26.5675 25.2667 26.3045 23.6375 26.375Z" fill="white"/>
<path d="M16 21.175C15.6417 21.175 15.2792 21.175 14.9125 21.175C13.4284 21.1214 11.9492 21.3733 10.5666 21.9152C9.18394 22.457 7.92742 23.2773 6.875 24.325L6.575 24.675V35.025H11.675V29.15L12.3625 28.375L12.675 28.0125C14.3024 26.3406 16.3285 25.1104 18.5625 24.4375C17.444 23.5864 16.5619 22.4633 16 21.175Z" stroke="white"/>
<path d="M40.175 24.2875C39.1226 23.2398 37.8661 22.4195 36.4834 21.8777C35.1008 21.3358 33.6216 21.0839 32.1375 21.1375C31.6823 21.1388 31.2276 21.1638 30.775 21.2125C30.2026 22.4211 29.3446 23.4722 28.275 24.275C30.66 24.9348 32.8205 26.2311 34.525 28.025L34.8375 28.375L35.5125 29.15V35.0375H40.4375V24.6375L40.175 24.2875Z" stroke="white"/>
<path d="M14.875 18.7375C15.0125 18.7375 15.125 18.7375 15.2625 18.7375C15.0825 17.1916 15.3537 15.6265 16.0435 14.2314C16.7334 12.8362 17.8123 11.6705 19.15 10.875C18.6651 10.1342 17.9961 9.53201 17.2085 9.12743C16.4209 8.72286 15.5418 8.52976 14.6572 8.56703C13.7725 8.60431 12.9128 8.8707 12.162 9.3401C11.4113 9.8095 10.7953 10.4658 10.3744 11.2448C9.95357 12.0238 9.74222 12.8987 9.76109 13.7839C9.77995 14.6691 10.0284 15.5343 10.4821 16.2946C10.9358 17.055 11.5791 17.6845 12.3492 18.1214C13.1192 18.5584 13.9896 18.7879 14.875 18.7875V18.7375Z" stroke="white"/>
<path d="M31.5375 17.8C31.5527 18.0873 31.5527 18.3752 31.5375 18.6625C31.7774 18.7005 32.0197 18.7214 32.2625 18.725H32.5C33.3815 18.678 34.2358 18.4035 34.9798 17.9284C35.7238 17.4532 36.332 16.7934 36.7453 16.0134C37.1586 15.2334 37.3629 14.3596 37.3383 13.4772C37.3137 12.5947 37.061 11.7337 36.6048 10.9779C36.1487 10.2222 35.5046 9.59738 34.7353 9.16441C33.966 8.73144 33.0977 8.50505 32.2149 8.50727C31.3322 8.50949 30.465 8.74025 29.6979 9.17708C28.9308 9.61392 28.2898 10.2419 27.8375 11C28.9689 11.7387 29.8991 12.7466 30.5449 13.9335C31.1907 15.1203 31.5318 16.4489 31.5375 17.8Z" stroke="white"/>
<path d="M23.3375 23.4C26.4234 23.4 28.925 20.8984 28.925 17.8125C28.925 14.7266 26.4234 12.225 23.3375 12.225C20.2516 12.225 17.75 14.7266 17.75 17.8125C17.75 20.8984 20.2516 23.4 23.3375 23.4Z" stroke="white"/>
<path d="M23.6375 26.375C22.0051 26.3091 20.3762 26.5741 18.8488 27.1541C17.3214 27.7341 15.9272 28.6171 14.75 29.75L14.4375 30.1V38.0125C14.4424 38.2702 14.498 38.5245 14.6011 38.7607C14.7043 38.997 14.853 39.2106 15.0387 39.3893C15.2244 39.5681 15.4436 39.7085 15.6836 39.8026C15.9236 39.8966 16.1798 39.9425 16.4375 39.9375H30.8C31.0577 39.9425 31.3139 39.8966 31.5539 39.8026C31.7939 39.7085 32.0131 39.5681 32.1988 39.3893C32.3845 39.2106 32.5332 38.997 32.6364 38.7607C32.7395 38.5245 32.7951 38.2702 32.8 38.0125V30.125L32.5 29.75C31.3304 28.6137 29.941 27.7282 28.4171 27.1478C26.8931 26.5675 25.2667 26.3045 23.6375 26.375Z" stroke="white"/>
<path d="M46 1H1V46H46V1Z" stroke="white"/>
</svg>
